<svg width="390" height="941" viewBox="0 0 390 941" fill="none" xmlns="http://www.w3.org/2000/svg">
<path d="M267.712 75.0174C202.28 -55.2402 285.062 -217.028 334.632 -281.64C409.977 -396.391 426.611 -329.453 425.509 -281.64C403.753 -224.136 369.495 -78.1128 406.507 45.942C452.772 201.011 449.894 540.099 418.5 527.5C393.385 517.421 364.924 583.142 322.239 640C233.565 733.364 -68.3695 832.333 71.0863 830.007C197.331 827.901 614.325 731.249 823.744 669.631C888.067 635.95 936.335 614.827 945.165 621.634C953.139 627.781 903.492 646.166 823.744 669.631C719.546 724.191 573.22 811.705 484.167 866.836C347.024 986.691 -126.5 959.5 -141.237 788.333C-145.946 733.632 113.333 542.779 286 572.5C348.237 505.304 333.144 205.275 267.712 75.0174Z" fill="url(#paint0_radial_43_247)" fill-opacity="0.46"/>
<defs>
<radialGradient id="paint0_radial_43_247" cx="0" cy="0" r="1" gradientUnits="userSpaceOnUse" gradientTransform="translate(-141.3 -345) rotate(27.3575) scale(1235.48 5565.19)">
<stop stop-color="#0094FF"/>
<stop offset="0.67" stop-color="#8800FF"/>
</radialGradient>
</defs>
</svg>
