<svg width="125" height="19" viewBox="0 0 125 19" fill="none" xmlns="http://www.w3.org/2000/svg">
<path d="M1.872 18.168C1.552 18.168 1.296 18.096 1.104 17.952C0.912 17.808 0.8 17.616 0.768 17.376C0.736 17.136 0.784 16.864 0.912 16.56L7.416 1.968C7.576 1.584 7.776 1.312 8.016 1.152C8.272 0.992 8.552 0.912 8.856 0.912C9.144 0.912 9.408 0.992 9.648 1.152C9.904 1.312 10.112 1.584 10.272 1.968L16.776 16.56C16.92 16.864 16.976 17.144 16.944 17.4C16.912 17.64 16.808 17.832 16.632 17.976C16.456 18.104 16.208 18.168 15.888 18.168C15.536 18.168 15.256 18.08 15.048 17.904C14.84 17.728 14.656 17.456 14.496 17.088L12.816 13.2L13.944 13.872H3.72L4.824 13.2L3.168 17.088C3.008 17.472 2.832 17.752 2.64 17.928C2.448 18.088 2.192 18.168 1.872 18.168ZM8.808 3.84L5.184 12.432L4.584 11.856H13.056L12.504 12.432L8.856 3.84H8.808ZM24.0398 18.216C23.0798 18.216 22.2718 18.048 21.6158 17.712C20.9598 17.376 20.4718 16.88 20.1518 16.224C19.8318 15.568 19.6718 14.768 19.6718 13.824V8.16H18.2318C17.9118 8.16 17.6638 8.08 17.4878 7.92C17.3117 7.744 17.2237 7.512 17.2237 7.224C17.2237 6.92 17.3117 6.688 17.4878 6.528C17.6638 6.368 17.9118 6.288 18.2318 6.288H19.6718V3.816C19.6718 3.416 19.7758 3.112 19.9838 2.904C20.2078 2.696 20.5118 2.592 20.8958 2.592C21.2798 2.592 21.5758 2.696 21.7838 2.904C21.9918 3.112 22.0958 3.416 22.0958 3.816V6.288H24.9038C25.2238 6.288 25.4718 6.368 25.6478 6.528C25.8238 6.688 25.9118 6.92 25.9118 7.224C25.9118 7.512 25.8238 7.744 25.6478 7.92C25.4718 8.08 25.2238 8.16 24.9038 8.16H22.0958V13.632C22.0958 14.48 22.2718 15.12 22.6238 15.552C22.9918 15.984 23.5838 16.2 24.3997 16.2C24.6878 16.2 24.9358 16.176 25.1438 16.128C25.3678 16.064 25.5518 16.024 25.6958 16.008C25.8718 16.008 26.0158 16.072 26.1278 16.2C26.2398 16.312 26.2958 16.536 26.2958 16.872C26.2958 17.112 26.2478 17.336 26.1518 17.544C26.0718 17.752 25.9198 17.888 25.6958 17.952C25.5038 18.016 25.2398 18.072 24.9038 18.12C24.5838 18.184 24.2958 18.216 24.0398 18.216ZM32.3366 18.216C31.3766 18.216 30.5686 18.048 29.9126 17.712C29.2566 17.376 28.7686 16.88 28.4486 16.224C28.1286 15.568 27.9686 14.768 27.9686 13.824V8.16H26.5286C26.2086 8.16 25.9606 8.08 25.7846 7.92C25.6086 7.744 25.5206 7.512 25.5206 7.224C25.5206 6.92 25.6086 6.688 25.7846 6.528C25.9606 6.368 26.2086 6.288 26.5286 6.288H27.9686V3.816C27.9686 3.416 28.0726 3.112 28.2806 2.904C28.5046 2.696 28.8086 2.592 29.1926 2.592C29.5766 2.592 29.8726 2.696 30.0806 2.904C30.2886 3.112 30.3926 3.416 30.3926 3.816V6.288H33.2006C33.5206 6.288 33.7686 6.368 33.9446 6.528C34.1206 6.688 34.2086 6.92 34.2086 7.224C34.2086 7.512 34.1206 7.744 33.9446 7.92C33.7686 8.08 33.5206 8.16 33.2006 8.16H30.3926V13.632C30.3926 14.48 30.5686 15.12 30.9206 15.552C31.2886 15.984 31.8806 16.2 32.6966 16.2C32.9846 16.2 33.2326 16.176 33.4406 16.128C33.6646 16.064 33.8486 16.024 33.9926 16.008C34.1686 16.008 34.3126 16.072 34.4246 16.2C34.5366 16.312 34.5926 16.536 34.5926 16.872C34.5926 17.112 34.5446 17.336 34.4486 17.544C34.3686 17.752 34.2166 17.888 33.9926 17.952C33.8006 18.016 33.5366 18.072 33.2006 18.12C32.8806 18.184 32.5926 18.216 32.3366 18.216ZM41.4891 18.216C40.2091 18.216 39.1051 17.976 38.1771 17.496C37.2651 17 36.5531 16.304 36.0411 15.408C35.5451 14.496 35.2971 13.416 35.2971 12.168C35.2971 10.952 35.5451 9.888 36.0411 8.976C36.5371 8.064 37.2171 7.352 38.0811 6.84C38.9451 6.328 39.9291 6.072 41.0331 6.072C41.8491 6.072 42.5771 6.208 43.2171 6.48C43.8571 6.736 44.4011 7.12 44.8491 7.632C45.3131 8.128 45.6571 8.736 45.8811 9.456C46.1211 10.176 46.2411 10.984 46.2411 11.88C46.2411 12.152 46.1611 12.36 46.0011 12.504C45.8411 12.632 45.6011 12.696 45.2811 12.696H37.2171V11.208H44.6091L44.2011 11.544C44.2011 10.744 44.0811 10.064 43.8411 9.504C43.6171 8.944 43.2731 8.52 42.8091 8.232C42.3611 7.928 41.8011 7.776 41.1291 7.776C40.3771 7.776 39.7371 7.952 39.2091 8.304C38.6971 8.656 38.3051 9.144 38.0331 9.768C37.7611 10.392 37.6251 11.12 37.6251 11.952V12.096C37.6251 13.504 37.9531 14.568 38.6091 15.288C39.2811 15.992 40.2491 16.344 41.5131 16.344C41.9931 16.344 42.4971 16.28 43.0251 16.152C43.5691 16.024 44.0811 15.808 44.5611 15.504C44.8331 15.344 45.0731 15.272 45.2811 15.288C45.5051 15.304 45.6811 15.376 45.8091 15.504C45.9531 15.632 46.0411 15.792 46.0731 15.984C46.1051 16.176 46.0731 16.376 45.9771 16.584C45.8811 16.776 45.7131 16.952 45.4731 17.112C44.9291 17.48 44.2971 17.76 43.5771 17.952C42.8571 18.128 42.1611 18.216 41.4891 18.216ZM50.0837 18.168C49.6997 18.168 49.4037 18.064 49.1957 17.856C48.9877 17.632 48.8837 17.328 48.8837 16.944V7.344C48.8837 6.944 48.9877 6.64 49.1957 6.432C49.4037 6.224 49.6917 6.12 50.0597 6.12C50.4437 6.12 50.7317 6.224 50.9237 6.432C51.1317 6.64 51.2357 6.944 51.2357 7.344V9.216L50.9717 8.784C51.3237 7.888 51.8757 7.216 52.6277 6.768C53.3797 6.304 54.2437 6.072 55.2197 6.072C56.1477 6.072 56.9157 6.248 57.5237 6.6C58.1477 6.936 58.6117 7.456 58.9157 8.16C59.2197 8.848 59.3717 9.72 59.3717 10.776V16.944C59.3717 17.328 59.2677 17.632 59.0597 17.856C58.8517 18.064 58.5557 18.168 58.1717 18.168C57.7717 18.168 57.4677 18.064 57.2597 17.856C57.0517 17.632 56.9477 17.328 56.9477 16.944V10.92C56.9477 9.912 56.7477 9.176 56.3477 8.712C55.9637 8.248 55.3557 8.016 54.5237 8.016C53.5477 8.016 52.7637 8.32 52.1717 8.928C51.5957 9.536 51.3077 10.352 51.3077 11.376V16.944C51.3077 17.76 50.8997 18.168 50.0837 18.168ZM67.1758 18.216C66.1518 18.216 65.2478 17.976 64.4638 17.496C63.6958 17 63.0958 16.296 62.6638 15.384C62.2318 14.456 62.0158 13.376 62.0158 12.144C62.0158 10.88 62.2318 9.8 62.6638 8.904C63.0958 8.008 63.6958 7.312 64.4638 6.816C65.2478 6.32 66.1518 6.072 67.1758 6.072C68.1998 6.072 69.0798 6.328 69.8158 6.84C70.5678 7.336 71.0718 8.008 71.3278 8.856H71.0638V2.136C71.0638 1.736 71.1678 1.432 71.3758 1.224C71.5838 1.016 71.8798 0.912 72.2638 0.912C72.6478 0.912 72.9438 1.016 73.1518 1.224C73.3758 1.432 73.4878 1.736 73.4878 2.136V16.944C73.4878 17.328 73.3838 17.632 73.1758 17.856C72.9678 18.064 72.6718 18.168 72.2878 18.168C71.9038 18.168 71.6078 18.064 71.3998 17.856C71.1918 17.632 71.0878 17.328 71.0878 16.944V14.832L71.3518 15.36C71.0958 16.224 70.5918 16.92 69.8398 17.448C69.1038 17.96 68.2158 18.216 67.1758 18.216ZM67.7998 16.344C68.4558 16.344 69.0318 16.184 69.5278 15.864C70.0238 15.544 70.4078 15.072 70.6798 14.448C70.9678 13.824 71.1118 13.056 71.1118 12.144C71.1118 10.768 70.8078 9.728 70.1998 9.024C69.5918 8.32 68.7918 7.968 67.7998 7.968C67.1278 7.968 66.5438 8.128 66.0478 8.448C65.5518 8.752 65.1598 9.216 64.8718 9.84C64.5998 10.464 64.4638 11.232 64.4638 12.144C64.4638 13.504 64.7678 14.544 65.3758 15.264C65.9838 15.984 66.7918 16.344 67.7998 16.344ZM80.6355 18.216C79.8195 18.216 79.0835 18.056 78.4275 17.736C77.7875 17.416 77.2835 16.984 76.9155 16.44C76.5475 15.896 76.3635 15.28 76.3635 14.592C76.3635 13.728 76.5795 13.048 77.0115 12.552C77.4595 12.04 78.1875 11.68 79.1955 11.472C80.2195 11.248 81.5955 11.136 83.3235 11.136H84.4515V12.624H83.3475C82.1955 12.624 81.2835 12.68 80.6115 12.792C79.9395 12.904 79.4595 13.096 79.1715 13.368C78.8995 13.624 78.7635 13.984 78.7635 14.448C78.7635 15.056 78.9715 15.552 79.3875 15.936C79.8035 16.304 80.3795 16.488 81.1155 16.488C81.7075 16.488 82.2275 16.352 82.6755 16.08C83.1235 15.792 83.4755 15.408 83.7315 14.928C84.0035 14.448 84.1395 13.896 84.1395 13.272V10.512C84.1395 9.6 83.9475 8.944 83.5635 8.544C83.1795 8.144 82.5475 7.944 81.6675 7.944C81.1555 7.944 80.6195 8.008 80.0595 8.136C79.5155 8.264 78.9475 8.48 78.3555 8.784C78.0835 8.912 77.8515 8.952 77.6595 8.904C77.4675 8.856 77.3155 8.752 77.2035 8.592C77.0915 8.416 77.0275 8.232 77.0115 8.04C77.0115 7.832 77.0595 7.632 77.1555 7.44C77.2675 7.248 77.4515 7.104 77.7075 7.008C78.4115 6.672 79.1075 6.432 79.7955 6.288C80.4835 6.144 81.1315 6.072 81.7395 6.072C82.8115 6.072 83.6915 6.24 84.3795 6.576C85.0835 6.912 85.6035 7.424 85.9395 8.112C86.2755 8.8 86.4435 9.688 86.4435 10.776V16.944C86.4435 17.328 86.3475 17.632 86.1555 17.856C85.9635 18.064 85.6835 18.168 85.3155 18.168C84.9635 18.168 84.6835 18.064 84.4755 17.856C84.2675 17.632 84.1635 17.328 84.1635 16.944V15.384H84.3795C84.2515 15.976 84.0115 16.488 83.6595 16.92C83.3235 17.336 82.8995 17.656 82.3875 17.88C81.8755 18.104 81.2915 18.216 80.6355 18.216ZM90.9821 18.168C90.5981 18.168 90.3021 18.064 90.0941 17.856C89.8861 17.632 89.7821 17.328 89.7821 16.944V7.344C89.7821 6.944 89.8861 6.64 90.0941 6.432C90.3021 6.224 90.5901 6.12 90.9581 6.12C91.3421 6.12 91.6301 6.224 91.8221 6.432C92.0301 6.64 92.1341 6.944 92.1341 7.344V9.216L91.8701 8.784C92.2221 7.888 92.7741 7.216 93.5261 6.768C94.2781 6.304 95.1421 6.072 96.1181 6.072C97.0461 6.072 97.8141 6.248 98.4221 6.6C99.0461 6.936 99.5101 7.456 99.8141 8.16C100.118 8.848 100.27 9.72 100.27 10.776V16.944C100.27 17.328 100.166 17.632 99.9581 17.856C99.7501 18.064 99.4541 18.168 99.0701 18.168C98.6701 18.168 98.3661 18.064 98.1581 17.856C97.9501 17.632 97.8461 17.328 97.8461 16.944V10.92C97.8461 9.912 97.6461 9.176 97.2461 8.712C96.8621 8.248 96.2541 8.016 95.4221 8.016C94.4461 8.016 93.6621 8.32 93.0701 8.928C92.4941 9.536 92.2061 10.352 92.2061 11.376V16.944C92.2061 17.76 91.7981 18.168 90.9821 18.168ZM108.77 18.216C107.57 18.216 106.53 17.968 105.65 17.472C104.786 16.96 104.114 16.248 103.634 15.336C103.154 14.408 102.914 13.32 102.914 12.072C102.914 11.144 103.05 10.312 103.322 9.576C103.594 8.824 103.978 8.192 104.474 7.68C104.986 7.168 105.602 6.776 106.322 6.504C107.058 6.216 107.874 6.072 108.77 6.072C109.33 6.072 109.914 6.16 110.522 6.336C111.146 6.496 111.722 6.768 112.25 7.152C112.458 7.28 112.586 7.44 112.634 7.632C112.698 7.808 112.706 7.992 112.658 8.184C112.626 8.376 112.538 8.544 112.394 8.688C112.266 8.816 112.106 8.896 111.914 8.928C111.722 8.944 111.514 8.888 111.29 8.76C110.906 8.488 110.514 8.296 110.114 8.184C109.714 8.056 109.33 7.992 108.962 7.992C108.386 7.992 107.874 8.088 107.426 8.28C106.994 8.456 106.626 8.72 106.322 9.072C106.018 9.408 105.786 9.832 105.626 10.344C105.482 10.856 105.41 11.44 105.41 12.096C105.41 13.408 105.714 14.44 106.322 15.192C106.946 15.928 107.826 16.296 108.962 16.296C109.33 16.296 109.714 16.24 110.114 16.128C110.514 16.016 110.906 15.824 111.29 15.552C111.514 15.424 111.722 15.376 111.914 15.408C112.106 15.44 112.258 15.528 112.37 15.672C112.498 15.8 112.578 15.96 112.61 16.152C112.658 16.328 112.65 16.512 112.586 16.704C112.522 16.896 112.386 17.056 112.178 17.184C111.666 17.552 111.106 17.816 110.498 17.976C109.906 18.136 109.33 18.216 108.77 18.216ZM120.075 18.216C118.795 18.216 117.691 17.976 116.763 17.496C115.851 17 115.139 16.304 114.627 15.408C114.131 14.496 113.883 13.416 113.883 12.168C113.883 10.952 114.131 9.888 114.627 8.976C115.123 8.064 115.803 7.352 116.667 6.84C117.531 6.328 118.515 6.072 119.619 6.072C120.435 6.072 121.163 6.208 121.803 6.48C122.443 6.736 122.987 7.12 123.435 7.632C123.899 8.128 124.243 8.736 124.467 9.456C124.707 10.176 124.827 10.984 124.827 11.88C124.827 12.152 124.747 12.36 124.587 12.504C124.427 12.632 124.187 12.696 123.867 12.696H115.803V11.208H123.195L122.787 11.544C122.787 10.744 122.667 10.064 122.427 9.504C122.203 8.944 121.859 8.52 121.395 8.232C120.947 7.928 120.387 7.776 119.715 7.776C118.963 7.776 118.323 7.952 117.795 8.304C117.283 8.656 116.891 9.144 116.619 9.768C116.347 10.392 116.211 11.12 116.211 11.952V12.096C116.211 13.504 116.539 14.568 117.195 15.288C117.867 15.992 118.835 16.344 120.099 16.344C120.579 16.344 121.083 16.28 121.611 16.152C122.155 16.024 122.667 15.808 123.147 15.504C123.419 15.344 123.659 15.272 123.867 15.288C124.091 15.304 124.267 15.376 124.395 15.504C124.539 15.632 124.627 15.792 124.659 15.984C124.691 16.176 124.659 16.376 124.563 16.584C124.467 16.776 124.299 16.952 124.059 17.112C123.515 17.48 122.883 17.76 122.163 17.952C121.443 18.128 120.747 18.216 120.075 18.216Z" fill="#91C3E7"/>
</svg>
