<svg width="299" height="38" viewBox="0 0 299 38" fill="none" xmlns="http://www.w3.org/2000/svg">
<circle cx="17.1667" cy="19.2328" r="16.6667" fill="white"/>
<circle cx="17.1667" cy="19.2328" r="16.6667" fill="url(#paint0_radial_43_357)"/>
<path d="M3.7381 9.94709L9.5 34.1852L21.9286 3.80423L23.8333 34.9471L34.0714 17.328" stroke="white" stroke-width="0.666667"/>
<circle cx="3.78573" cy="9.75662" r="2.61905" fill="white"/>
<circle cx="9.40469" cy="33.6614" r="2.61905" fill="white"/>
<circle cx="21.7857" cy="4.13757" r="2.61905" fill="white"/>
<circle cx="23.6905" cy="34.709" r="2.61905" fill="white"/>
<circle cx="33.8809" cy="17.09" r="2.61905" fill="white"/>
<path d="M58.8281 31.0483C58.3281 31.0483 57.901 30.8764 57.5469 30.5327C57.2031 30.1785 57.0208 29.7462 57 29.2358L56.8594 10.4702C56.8594 9.95974 57.0365 9.52745 57.3906 9.17328C57.7656 8.8087 58.1979 8.6264 58.6875 8.6264H66.0312C66.5417 8.6264 66.974 8.80349 67.3281 9.15765C67.6823 9.51182 67.8594 9.94411 67.8594 10.4545C67.8594 10.9545 67.6823 11.3868 67.3281 11.7514C66.974 12.1056 66.5417 12.2827 66.0312 12.2827H60.5156L60.6562 29.2045C60.6458 29.7254 60.4688 30.1577 60.125 30.5014C59.7812 30.8452 59.3542 31.0274 58.8438 31.0483C58.8333 31.0483 58.8281 31.0483 58.8281 31.0483ZM53.8281 12.3295C53.5781 12.3295 53.3281 12.2722 53.0781 12.1577C52.6094 11.9389 52.2865 11.6004 52.1094 11.142C51.9427 10.6837 51.9635 10.2149 52.1719 9.73578C52.3906 9.27745 52.724 8.96495 53.1719 8.79828C53.6302 8.6212 54.099 8.63161 54.5781 8.82953C55.0469 9.0587 55.3646 9.40245 55.5312 9.86078C55.7083 10.3087 55.6927 10.7722 55.4844 11.2514C55.0677 11.9702 54.5156 12.3295 53.8281 12.3295ZM72.5469 30.9233C72.0365 30.9233 71.599 30.7462 71.2344 30.392C70.8802 30.0274 70.7031 29.5847 70.7031 29.0639V10.3295C70.7031 9.8087 70.8802 9.3712 71.2344 9.01703C71.599 8.65245 72.0365 8.47015 72.5469 8.47015C73.0677 8.47015 73.5052 8.65245 73.8594 9.01703C74.224 9.3712 74.4062 9.8087 74.4062 10.3295V29.0639C74.4062 29.5847 74.224 30.0274 73.8594 30.392C73.5052 30.7462 73.0677 30.9233 72.5469 30.9233ZM82.9219 30.9233C82.401 30.9233 81.9583 30.7462 81.5938 30.392C81.2396 30.0274 81.0625 29.5847 81.0625 29.0639V10.3295C81.0625 9.8087 81.2396 9.3712 81.5938 9.01703C81.9583 8.65245 82.401 8.47015 82.9219 8.47015C83.4323 8.47015 83.8646 8.65245 84.2188 9.01703C84.5833 9.3712 84.7656 9.8087 84.7656 10.3295V29.0639C84.7656 29.5847 84.5833 30.0274 84.2188 30.392C83.8646 30.7462 83.4323 30.9233 82.9219 30.9233ZM77.7344 21.5483C77.224 21.5483 76.7865 21.3712 76.4219 21.017C76.0677 20.6524 75.8906 20.2149 75.8906 19.7045C75.8906 19.1837 76.0677 18.7462 76.4219 18.392C76.7865 18.0274 77.224 17.8452 77.7344 17.8452C78.2448 17.8452 78.6823 18.0274 79.0469 18.392C79.4115 18.7462 79.5938 19.1837 79.5938 19.7045C79.5938 20.2149 79.4115 20.6524 79.0469 21.017C78.6823 21.3712 78.2448 21.5483 77.7344 21.5483ZM103.656 12.2358H91.6562C91.1562 12.2358 90.7292 12.0587 90.375 11.7045C90.0208 11.3504 89.8438 10.9233 89.8438 10.4233C89.8438 9.92328 90.0208 9.4962 90.375 9.14203C90.7292 8.78786 91.1562 8.61078 91.6562 8.61078H103.656C104.156 8.61078 104.583 8.78786 104.938 9.14203C105.292 9.4962 105.469 9.92328 105.469 10.4233C105.469 10.9233 105.292 11.3504 104.938 11.7045C104.583 12.0587 104.156 12.2358 103.656 12.2358ZM101.812 20.8295H96.3125C95.8125 20.8295 95.3854 20.6524 95.0312 20.2983C94.6771 19.9441 94.5 19.517 94.5 19.017C94.5 18.517 94.6771 18.0899 95.0312 17.7358C95.3854 17.3816 95.8125 17.2045 96.3125 17.2045H101.812C102.312 17.2045 102.74 17.3816 103.094 17.7358C103.448 18.0899 103.625 18.517 103.625 19.017C103.625 19.517 103.448 19.9441 103.094 20.2983C102.74 20.6524 102.312 20.8295 101.812 20.8295ZM91.6875 20.8295H91.6562C91.1562 20.8295 90.7292 20.6524 90.375 20.2983C90.0208 19.9441 89.8438 19.517 89.8438 19.017C89.8438 18.517 90.0208 18.0899 90.375 17.7358C90.7292 17.3816 91.1562 17.2045 91.6562 17.2045H91.6875C92.1875 17.2045 92.6146 17.3816 92.9688 17.7358C93.3229 18.0899 93.5 18.517 93.5 19.017C93.5 19.517 93.3229 19.9441 92.9688 20.2983C92.6146 20.6524 92.1875 20.8295 91.6875 20.8295ZM103.656 30.9233H91.6562C91.1562 30.9233 90.7292 30.7462 90.375 30.392C90.0208 30.0379 89.8438 29.6108 89.8438 29.1108C89.8438 28.6108 90.0208 28.1837 90.375 27.8295C90.7292 27.4754 91.1562 27.2983 91.6562 27.2983H103.656C104.156 27.2983 104.583 27.4754 104.938 27.8295C105.292 28.1837 105.469 28.6108 105.469 29.1108C105.469 29.6108 105.292 30.0379 104.938 30.392C104.583 30.7462 104.156 30.9233 103.656 30.9233ZM126.891 31.0483C124.609 30.9858 122.776 30.5587 121.391 29.767C120.005 28.9754 118.995 28.1681 118.359 27.3452C116.974 25.6577 116.135 23.6993 115.844 21.4702C115.562 19.2306 115.875 17.0431 116.781 14.9077C118.646 10.9181 121.802 8.78265 126.25 8.5014C126.771 8.49099 127.208 8.65245 127.562 8.98578C127.927 9.31911 128.125 9.7462 128.156 10.267C128.167 10.7879 128.005 11.2306 127.672 11.5952C127.339 11.9493 126.911 12.142 126.391 12.1733C124.474 12.3295 123.031 12.866 122.062 13.7827C121.094 14.6993 120.458 15.5691 120.156 16.392C119.531 17.8608 119.312 19.3764 119.5 20.9389C119.688 22.491 120.245 23.8347 121.172 24.9702C123.161 27.2722 126.214 27.9129 130.328 26.892C130.839 26.7774 131.302 26.8504 131.719 27.1108C132.146 27.3608 132.432 27.7358 132.578 28.2358C132.693 28.7462 132.62 29.2097 132.359 29.6264C132.109 30.0431 131.734 30.3243 131.234 30.4702C129.63 30.8556 128.182 31.0483 126.891 31.0483ZM130.375 13.4233C130.219 13.4233 130.062 13.4024 129.906 13.3608H129.875C129.396 13.2149 129.036 12.9389 128.797 12.5327C128.557 12.116 128.495 11.6577 128.609 11.1577C128.755 10.6785 129.031 10.3191 129.438 10.0795C129.854 9.83995 130.312 9.78265 130.812 9.90765H130.828C131.318 10.0535 131.682 10.3347 131.922 10.7514C132.161 11.1577 132.219 11.6056 132.094 12.0952C131.979 12.5014 131.76 12.8243 131.438 13.0639C131.125 13.3035 130.771 13.4233 130.375 13.4233ZM149.734 31.0483C148.974 31.0483 148.401 30.6316 148.016 29.7983L148 29.7358C147.854 29.2462 147.891 28.7879 148.109 28.3608C148.328 27.9233 148.677 27.6212 149.156 27.4545C149.656 27.3087 150.12 27.3452 150.547 27.5639C150.974 27.7827 151.271 28.1368 151.438 28.6264L151.453 28.6889C151.599 29.1785 151.562 29.6368 151.344 30.0639C151.125 30.491 150.776 30.7879 150.297 30.9545C150.109 31.017 149.922 31.0483 149.734 31.0483ZM137.094 31.0014C136.635 31.0014 136.214 30.8295 135.828 30.4858C135.318 29.9441 135.172 29.3191 135.391 28.6108L141.859 9.90765C142.234 9.09515 142.807 8.6889 143.578 8.6889C144.411 8.74099 144.979 9.15765 145.281 9.9389L149.953 24.0795C150.099 24.5691 150.062 25.0327 149.844 25.4702C149.625 25.8972 149.276 26.1941 148.797 26.3608C148.307 26.517 147.844 26.4858 147.406 26.267C146.979 26.0483 146.682 25.6993 146.516 25.2202L143.531 16.142L140.047 26.2045L143.344 25.0014C143.833 24.8452 144.292 24.8712 144.719 25.0795C145.156 25.2774 145.469 25.616 145.656 26.0952C145.823 26.5743 145.802 27.0327 145.594 27.4702C145.396 27.9077 145.057 28.2202 144.578 28.4077L137.719 30.892C137.51 30.9649 137.302 31.0014 137.094 31.0014ZM154.266 12.1264C153.641 12.1264 153.12 11.8347 152.703 11.2514C152.443 10.7931 152.37 10.3295 152.484 9.86078C152.609 9.39203 152.891 9.02224 153.328 8.7514C153.776 8.5014 154.234 8.4337 154.703 8.54828C155.172 8.66286 155.542 8.9389 155.812 9.3764H155.828C156.078 9.82432 156.141 10.2827 156.016 10.7514C155.901 11.2202 155.625 11.5952 155.188 11.8764C154.885 12.0431 154.578 12.1264 154.266 12.1264ZM168.75 30.9233C168.24 30.9233 167.807 30.7462 167.453 30.392C167.099 30.0379 166.922 29.6108 166.922 29.1108V17.017L162.859 23.9545C162.495 24.5379 161.964 24.8399 161.266 24.8608C160.578 24.8295 160.057 24.5118 159.703 23.9077L154.875 15.1733C154.635 14.7149 154.583 14.2566 154.719 13.7983C154.854 13.3295 155.141 12.9649 155.578 12.7045C156.036 12.4649 156.5 12.4129 156.969 12.5483C157.438 12.6837 157.802 12.9754 158.062 13.4233L161.344 19.3608L167.172 9.3764C167.661 8.63682 168.344 8.35557 169.219 8.53265C170.115 8.88682 170.562 9.47536 170.562 10.2983V29.1108C170.562 29.6108 170.385 30.0379 170.031 30.392C169.677 30.7462 169.25 30.9233 168.75 30.9233ZM177.688 30.9233C177.188 30.9233 176.76 30.7462 176.406 30.392C176.052 30.0379 175.875 29.6108 175.875 29.1108C175.875 28.6108 176.052 28.1837 176.406 27.8295C176.76 27.4754 177.188 27.2983 177.688 27.2983C178.188 27.2983 178.615 27.4754 178.969 27.8295C179.323 28.1837 179.5 28.6108 179.5 29.1108C179.5 29.6108 179.323 30.0379 178.969 30.392C178.615 30.7462 178.188 30.9233 177.688 30.9233ZM177.688 26.4858C177.188 26.4858 176.76 26.3087 176.406 25.9545C176.052 25.6004 175.875 25.1733 175.875 24.6733V21.3608C175.875 21.1733 175.901 20.9858 175.953 20.7983C176.047 20.5379 176.182 20.3087 176.359 20.1108C176.547 19.9129 176.771 19.7618 177.031 19.6577C177.208 19.5952 177.391 19.5535 177.578 19.5327L181.484 19.2827C182.88 19.1472 183.859 18.7149 184.422 17.9858C184.995 17.2462 185.255 16.4389 185.203 15.5639C185.182 14.6993 184.891 13.9077 184.328 13.1889C183.776 12.4702 182.932 12.1108 181.797 12.1108C181.797 12.1108 181.792 12.1108 181.781 12.1108L178.016 12.142C177.495 12.1212 177.062 11.9441 176.719 11.6108C176.385 11.267 176.208 10.8399 176.188 10.3295C176.198 9.81911 176.375 9.39203 176.719 9.04828C177.062 8.70453 177.49 8.52224 178 8.5014L181.766 8.48578C181.776 8.48578 181.792 8.48578 181.812 8.48578C183.281 8.48578 184.531 8.82953 185.562 9.51703C186.594 10.2045 187.385 11.0795 187.938 12.142C188.49 13.1941 188.792 14.2931 188.844 15.4389C188.917 17.1993 188.375 18.8243 187.219 20.3139C186.073 21.7931 184.24 22.6577 181.719 22.9077L179.5 23.0483V24.6733C179.5 25.1733 179.323 25.6004 178.969 25.9545C178.615 26.3087 178.188 26.4858 177.688 26.4858ZM199.453 30.9233C199.401 30.9233 199.349 30.9233 199.297 30.9233C197.349 30.8608 195.688 30.1316 194.312 28.7358C192.979 27.3087 192.323 25.616 192.344 23.6577C192.365 23.1681 192.542 22.7566 192.875 22.4233C193.219 22.0899 193.63 21.9233 194.109 21.9233C194.12 21.9233 194.13 21.9233 194.141 21.9233C194.641 21.9545 195.052 22.142 195.375 22.4858C195.708 22.8191 195.875 23.2358 195.875 23.7358C195.865 24.7149 196.198 25.5639 196.875 26.2827C197.562 26.991 198.396 27.3608 199.375 27.392C200.354 27.4024 201.203 27.0691 201.922 26.392C202.62 25.7045 202.99 24.8764 203.031 23.9077V10.2983C203.031 9.8087 203.203 9.39203 203.547 9.04828C203.891 8.70453 204.307 8.53265 204.797 8.53265C205.286 8.53265 205.703 8.70453 206.047 9.04828C206.391 9.39203 206.562 9.8087 206.562 10.2983V23.9233C206.562 23.9337 206.562 23.9493 206.562 23.9702C206.5 25.9181 205.771 27.5743 204.375 28.9389C202.938 30.2618 201.297 30.9233 199.453 30.9233ZM194.109 16.7358C193.62 16.7358 193.203 16.5639 192.859 16.2202C192.516 15.8764 192.344 15.4597 192.344 14.9702V10.4702C192.344 9.98057 192.516 9.5639 192.859 9.22015C193.203 8.8764 193.62 8.70453 194.109 8.70453C194.599 8.70453 195.016 8.8764 195.359 9.22015C195.703 9.5639 195.875 9.98057 195.875 10.4702V14.9702C195.875 15.4597 195.703 15.8764 195.359 16.2202C195.016 16.5639 194.599 16.7358 194.109 16.7358ZM194.109 21.0952C193.62 21.0952 193.203 20.9233 192.859 20.5795C192.516 20.2358 192.344 19.8191 192.344 19.3295V19.3139C192.344 18.8243 192.516 18.4077 192.859 18.0639C193.203 17.7202 193.62 17.5483 194.109 17.5483C194.599 17.5483 195.016 17.7202 195.359 18.0639C195.703 18.4077 195.875 18.8243 195.875 19.3139V19.3295C195.875 19.8191 195.703 20.2358 195.359 20.5795C195.016 20.9233 194.599 21.0952 194.109 21.0952ZM214.062 19.2202C213.771 19.2202 213.484 19.1368 213.203 18.9702C211.859 18.0847 211.016 16.9077 210.672 15.4389C210.339 13.9702 210.578 12.5483 211.391 11.1733C212.276 9.82953 213.453 8.99099 214.922 8.65765C216.391 8.3139 217.812 8.54828 219.188 9.36078C219.583 9.61078 219.828 9.94932 219.922 10.3764C220.016 10.8035 219.948 11.2149 219.719 11.6108C219.458 11.9962 219.115 12.241 218.688 12.3452C218.271 12.4389 217.865 12.366 217.469 12.1264C216.885 11.7827 216.281 11.6837 215.656 11.8295C215.031 11.9754 214.531 12.3295 214.156 12.892C213.823 13.4858 213.724 14.0952 213.859 14.7202C214.005 15.3347 214.365 15.8295 214.938 16.2045C215.323 16.4545 215.562 16.7931 215.656 17.2202C215.76 17.6368 215.693 18.0483 215.453 18.4545C215.078 18.9649 214.615 19.2202 214.062 19.2202ZM217.531 30.9233C216.51 30.9233 215.516 30.6368 214.547 30.0639C214.151 29.8139 213.906 29.4806 213.812 29.0639C213.719 28.6368 213.786 28.2202 214.016 27.8139C214.276 27.4285 214.615 27.1889 215.031 27.0952C215.458 26.991 215.87 27.0587 216.266 27.2983C216.849 27.642 217.453 27.741 218.078 27.5952C218.703 27.4493 219.198 27.0952 219.562 26.5327C219.906 25.9493 220.005 25.3504 219.859 24.7358C219.724 24.1108 219.37 23.6108 218.797 23.2358C218.411 22.9754 218.167 22.6368 218.062 22.2202C217.969 21.7931 218.042 21.3816 218.281 20.9858C218.531 20.6004 218.87 20.3608 219.297 20.267C219.724 20.1629 220.135 20.2254 220.531 20.4545C221.875 21.3399 222.714 22.517 223.047 23.9858C223.391 25.4545 223.156 26.8764 222.344 28.2514C221.792 29.116 221.089 29.7774 220.234 30.2358C219.38 30.6941 218.479 30.9233 217.531 30.9233ZM216.75 21.5483C216.5 21.5483 216.255 21.491 216.016 21.3764C215.609 21.1577 215.339 20.8452 215.203 20.4389C215.068 20.0222 215.094 19.6004 215.281 19.1733C215.5 18.767 215.812 18.4962 216.219 18.3608C216.635 18.2254 217.057 18.2566 217.484 18.4545C217.891 18.6733 218.161 18.991 218.297 19.4077C218.443 19.8139 218.417 20.2254 218.219 20.642C217.844 21.2462 217.354 21.5483 216.75 21.5483ZM241.297 31.0483C240.536 31.0483 239.974 30.6577 239.609 29.8764L232.719 11.1733C232.552 10.6837 232.568 10.2254 232.766 9.79828C232.974 9.36078 233.318 9.04307 233.797 8.84515C234.276 8.6889 234.734 8.70974 235.172 8.90765C235.609 9.10557 235.922 9.44411 236.109 9.92328L241.297 24.017L244.469 15.3608L242.812 10.8452C242.646 10.366 242.661 9.90765 242.859 9.47015C243.068 9.03265 243.406 8.72015 243.875 8.53265C244.365 8.36599 244.823 8.38682 245.25 8.59515C245.688 8.79307 246 9.1264 246.188 9.59515L251.375 23.7045L254.844 14.267C255.031 13.7983 255.339 13.4649 255.766 13.267C256.203 13.0587 256.667 13.0379 257.156 13.2045C257.625 13.392 257.958 13.7045 258.156 14.142C258.365 14.5691 258.385 15.0274 258.219 15.517L253.078 29.5483C252.766 30.2983 252.203 30.6941 251.391 30.7358C250.63 30.7358 250.062 30.3399 249.688 29.5483L246.391 20.5795L242.984 29.8608C242.672 30.6108 242.109 31.0066 241.297 31.0483ZM258.141 12.3139C257.859 12.3139 257.578 12.2462 257.297 12.1108C256.859 11.8608 256.568 11.5066 256.422 11.0483C256.286 10.5899 256.328 10.1316 256.547 9.67328C256.807 9.22536 257.167 8.9337 257.625 8.79828C258.083 8.65245 258.536 8.69411 258.984 8.92328C259.432 9.17328 259.724 9.52745 259.859 9.98578C260.005 10.4441 259.969 10.8972 259.75 11.3452L259.734 11.3608C259.318 11.9962 258.786 12.3139 258.141 12.3139ZM276.594 12.2358H264.594C264.094 12.2358 263.667 12.0587 263.312 11.7045C262.958 11.3504 262.781 10.9233 262.781 10.4233C262.781 9.92328 262.958 9.4962 263.312 9.14203C263.667 8.78786 264.094 8.61078 264.594 8.61078H276.594C277.094 8.61078 277.521 8.78786 277.875 9.14203C278.229 9.4962 278.406 9.92328 278.406 10.4233C278.406 10.9233 278.229 11.3504 277.875 11.7045C277.521 12.0587 277.094 12.2358 276.594 12.2358ZM274.75 20.8295H269.25C268.75 20.8295 268.323 20.6524 267.969 20.2983C267.615 19.9441 267.438 19.517 267.438 19.017C267.438 18.517 267.615 18.0899 267.969 17.7358C268.323 17.3816 268.75 17.2045 269.25 17.2045H274.75C275.25 17.2045 275.677 17.3816 276.031 17.7358C276.385 18.0899 276.562 18.517 276.562 19.017C276.562 19.517 276.385 19.9441 276.031 20.2983C275.677 20.6524 275.25 20.8295 274.75 20.8295ZM264.625 20.8295H264.594C264.094 20.8295 263.667 20.6524 263.312 20.2983C262.958 19.9441 262.781 19.517 262.781 19.017C262.781 18.517 262.958 18.0899 263.312 17.7358C263.667 17.3816 264.094 17.2045 264.594 17.2045H264.625C265.125 17.2045 265.552 17.3816 265.906 17.7358C266.26 18.0899 266.438 18.517 266.438 19.017C266.438 19.517 266.26 19.9441 265.906 20.2983C265.552 20.6524 265.125 20.8295 264.625 20.8295ZM276.594 30.9233H264.594C264.094 30.9233 263.667 30.7462 263.312 30.392C262.958 30.0379 262.781 29.6108 262.781 29.1108C262.781 28.6108 262.958 28.1837 263.312 27.8295C263.667 27.4754 264.094 27.2983 264.594 27.2983H276.594C277.094 27.2983 277.521 27.4754 277.875 27.8295C278.229 28.1837 278.406 28.6108 278.406 29.1108C278.406 29.6108 278.229 30.0379 277.875 30.392C277.521 30.7462 277.094 30.9233 276.594 30.9233ZM288.469 31.0483C287.625 31.0483 286.792 31.0222 285.969 30.9702C285.271 30.9285 284.625 30.9077 284.031 30.9077C283.833 30.8972 283.641 30.8608 283.453 30.7983C283.182 30.7045 282.953 30.5587 282.766 30.3608C282.766 30.3608 282.76 30.3608 282.75 30.3608C282.573 30.1733 282.443 29.9545 282.359 29.7045C282.349 29.7045 282.344 29.7045 282.344 29.7045C282.281 29.517 282.25 29.3191 282.25 29.1108L282.281 19.0795C282.292 18.6316 282.432 18.2514 282.703 17.9389C282.974 17.616 283.318 17.4129 283.734 17.3295C283.828 17.3087 283.922 17.2983 284.016 17.2983C284.016 17.2983 284.021 17.2983 284.031 17.2983C284.042 17.2983 284.057 17.2983 284.078 17.2983C284.609 17.2879 285.188 17.267 285.812 17.2358C286.938 17.1524 288.12 17.142 289.359 17.2045C290.609 16.3608 291.151 15.392 290.984 14.2983C290.693 13.142 289.734 12.4597 288.109 12.2514H284.031C283.542 12.2514 283.12 12.0795 282.766 11.7358C282.422 11.3816 282.25 10.9545 282.25 10.4545C282.25 9.96495 282.422 9.54828 282.766 9.20453C283.12 8.85036 283.542 8.67328 284.031 8.67328H288.203C288.255 8.67328 288.307 8.67328 288.359 8.67328C291.734 9.11078 293.776 10.7566 294.484 13.6108C294.776 15.2879 294.406 16.8399 293.375 18.267C293.896 18.5483 294.38 18.9077 294.828 19.3452C295.182 19.7097 295.359 20.1316 295.359 20.6108C295.37 21.0795 295.203 21.5014 294.859 21.8764C294.505 22.2306 294.089 22.4129 293.609 22.4233C293.13 22.4233 292.708 22.2514 292.344 21.9077C291.708 21.3347 290.891 20.9858 289.891 20.8608C289.818 20.8712 289.745 20.8764 289.672 20.8764H285.859L285.828 27.3764C285.932 27.3868 286.036 27.392 286.141 27.392C287.245 27.4649 288.333 27.4858 289.406 27.4545C290.479 27.4129 291.365 27.1993 292.062 26.8139C292.5 26.5639 292.948 26.4962 293.406 26.6108C293.875 26.7254 294.245 26.9962 294.516 27.4233C294.766 27.8608 294.833 28.3139 294.719 28.7827C294.604 29.241 294.333 29.6056 293.906 29.8764C293.115 30.3452 292.25 30.6577 291.312 30.8139C290.375 30.9702 289.427 31.0483 288.469 31.0483ZM295.156 26.5795C294.979 26.5795 294.807 26.5587 294.641 26.517C294.161 26.3608 293.807 26.0743 293.578 25.6577C293.349 25.2306 293.302 24.7722 293.438 24.2827C293.594 23.8035 293.88 23.4493 294.297 23.2202C294.714 22.991 295.167 22.9441 295.656 23.0795C296.135 23.2358 296.49 23.5222 296.719 23.9389C296.948 24.3556 296.995 24.8087 296.859 25.2983V25.3139C296.495 26.1577 295.927 26.5795 295.156 26.5795Z" fill="white"/>
<defs>
<radialGradient id="paint0_radial_43_357" cx="0" cy="0" r="1" gradientUnits="userSpaceOnUse" gradientTransform="translate(0.5 2.56616) rotate(23.6389) scale(36.7212 148.867)">
<stop stop-color="#0094FF"/>
<stop offset="1" stop-color="#8800FF"/>
</radialGradient>
</defs>
</svg>
